<svg id="visual" viewBox="0 0 900 600" width="900" height="600" xmlns="http://www.w3.org/2000/svg" xmlns:xlink="http://www.w3.org/1999/xlink" version="1.1"><rect x="0" y="0" width="900" height="600" fill="#4B5563"></rect><defs><linearGradient id="grad1_0" x1="33.3%" y1="0%" x2="100%" y2="100%"><stop offset="20%" stop-color="#3a4049" stop-opacity="1"></stop><stop offset="80%" stop-color="#3a4049" stop-opacity="1"></stop></linearGradient></defs><defs><linearGradient id="grad1_1" x1="33.3%" y1="0%" x2="100%" y2="100%"><stop offset="20%" stop-color="#3a4049" stop-opacity="1"></stop><stop offset="80%" stop-color="#424a56" stop-opacity="1"></stop></linearGradient></defs><defs><linearGradient id="grad1_2" x1="33.3%" y1="0%" x2="100%" y2="100%"><stop offset="20%" stop-color="#4b5563" stop-opacity="1"></stop><stop offset="80%" stop-color="#424a56" stop-opacity="1"></stop></linearGradient></defs><defs><linearGradient id="grad2_0" x1="0%" y1="0%" x2="66.7%" y2="100%"><stop offset="20%" stop-color="#3a4049" stop-opacity="1"></stop><stop offset="80%" stop-color="#3a4049" stop-opacity="1"></stop></linearGradient></defs><defs><linearGradient id="grad2_1" x1="0%" y1="0%" x2="66.7%" y2="100%"><stop offset="20%" stop-color="#424a56" stop-opacity="1"></stop><stop offset="80%" stop-color="#3a4049" stop-opacity="1"></stop></linearGradient></defs><defs><linearGradient id="grad2_2" x1="0%" y1="0%" x2="66.7%" y2="100%"><stop offset="20%" stop-color="#424a56" stop-opacity="1"></stop><stop offset="80%" stop-color="#4b5563" stop-opacity="1"></stop></linearGradient></defs><g transform="translate(900, 0)"><path d="M0 378.6C-39.1 372.9 -78.1 367.2 -115.9 356.6C-153.6 346.1 -190.1 330.8 -222.5 306.3C-254.9 281.7 -283.3 247.9 -288.8 209.8C-294.3 171.7 -277 129.3 -288.2 93.6C-299.3 57.9 -339 29 -378.6 0L0 0Z" fill="#47505c"></path><path d="M0 252.4C-26 248.6 -52.1 244.8 -77.3 237.8C-102.4 230.8 -126.7 220.6 -148.4 204.2C-170 187.8 -188.9 165.3 -192.5 139.9C-196.2 114.5 -184.7 86.2 -192.1 62.4C-199.5 38.6 -226 19.3 -252.4 0L0 0Z" fill="#3e454f"></path><path d="M0 126.2C-13 124.3 -26 122.4 -38.6 118.9C-51.2 115.4 -63.4 110.3 -74.2 102.1C-85 93.9 -94.4 82.6 -96.3 69.9C-98.1 57.2 -92.3 43.1 -96.1 31.2C-99.8 19.3 -113 9.7 -126.2 0L0 0Z" fill="#3a4049"></path></g><g transform="translate(0, 600)"><path d="M0 -378.6C38.2 -368.9 76.3 -359.2 112.5 -346.2C148.6 -333.1 182.7 -316.7 215.1 -296.1C247.5 -275.5 278.2 -250.6 303.4 -220.4C328.6 -190.2 348.4 -154.6 360.1 -117C371.7 -79.4 375.1 -39.7 378.6 0L0 0Z" fill="#47505c"></path><path d="M0 -252.4C25.4 -245.9 50.9 -239.5 75 -230.8C99.1 -222.1 121.8 -211.2 143.4 -197.4C165 -183.6 185.4 -167.1 202.3 -146.9C219.1 -126.8 232.3 -103.1 240 -78C247.8 -52.9 250.1 -26.5 252.4 0L0 0Z" fill="#3e454f"></path><path d="M0 -126.2C12.7 -123 25.4 -119.7 37.5 -115.4C49.5 -111 60.9 -105.6 71.7 -98.7C82.5 -91.8 92.7 -83.5 101.1 -73.5C109.5 -63.4 116.1 -51.5 120 -39C123.9 -26.5 125 -13.2 126.2 0L0 0Z" fill="#3a4049"></path></g></svg>